<svg width="57" height="63" viewBox="0 0 57 63" fill="none" xmlns="http://www.w3.org/2000/svg">
<path d="M0.463149 31.8318C0.576273 28.1717 2.36046 25.0786 4.91781 22.3817C7.26927 19.9018 10.0387 18.6475 9.87081 14.869C9.80731 13.4392 9.3242 12.2458 8.9877 10.8946C8.97849 10.8577 8.93355 10.7848 8.98905 10.7685C10.8278 12.1007 12.1425 14.1182 12.5268 16.2544C13.1434 19.6814 11.253 22.9846 11.6862 26.4359C12.2553 30.9702 16.6537 34.5343 20.5583 36.878C20.6366 36.9251 20.7186 36.9969 20.8173 36.9931C19.6999 35.8602 18.8114 34.5779 18.1727 33.1625C14.9731 26.0712 18.0237 18.6827 22.3452 12.6949C23.7445 10.7562 25.9012 8.45551 26.3232 6.1157C26.5431 4.89616 25.8929 3.50802 25.5795 2.32708C25.425 1.74494 25.1859 1.07142 25.3863 0.486507C25.4577 0.480258 25.5084 0.519141 25.5635 0.551775C25.9445 0.777715 26.5299 1.29084 26.8789 1.58899C30.3457 4.55093 33.566 8.98946 34.3734 13.3405C34.7372 15.3013 34.671 17.3094 34.9811 19.2751C35.7657 24.2498 39.3997 28.1492 42.9129 31.7482C42.9779 31.7182 42.9059 31.646 42.8817 31.6103C39.4192 26.5047 39.8241 19.9866 43.8672 15.2683C44.9603 13.9925 46.6018 12.5896 48.182 11.8506V11.8922C48.1781 11.9052 48.1875 11.9229 48.182 11.9339L48.1368 11.9756C47.3461 13.035 46.8371 13.8821 46.5025 15.1546C44.1354 24.1583 54.3836 31.7869 50.9863 40.8231L50.8961 40.8234L50.9189 40.9069C50.9943 40.925 51.0024 40.8446 51.0315 40.8233C52.5258 39.7191 53.5638 37.5496 53.702 35.809C53.7658 35.0049 53.6461 34.3682 53.5313 33.5896C53.5246 33.5444 53.4813 33.4461 53.5639 33.4556C54.4302 35.0492 55.1486 36.7048 55.5778 38.4501C55.817 39.4233 56.0232 40.5343 56.0521 41.5309C56.056 41.6629 56.0123 41.8502 56.0974 41.9473V44.0286C56.0147 44.1113 56.0541 44.2854 56.0521 44.4033C55.9595 50.0038 52.0285 55.784 47.1868 58.9729C48.6124 54.9474 50.907 51.0219 50.6241 46.6515C49.7754 46.9171 48.9108 47.2265 48.0007 47.2343L48.0466 45.6319C48.2543 43.0198 48.649 40.3878 48.3117 37.7693C48.2335 37.1614 48.059 36.5703 47.9632 35.967C47.7169 34.4164 47.5125 32.8561 47.4125 31.291L47.1739 32.3404C46.1061 35.7823 42.6613 37.829 40.5382 40.6569C40.85 37.369 39.891 34.1609 39.2707 30.958L39.0386 31.6387L37.9148 33.4971C37.4048 29.4246 33.9574 26.5068 31.9655 23.0495C31.1506 21.635 30.1984 19.167 30.0875 17.5764C30.0506 17.0457 30.1151 16.5014 30.1123 15.9722C28.591 17.0557 27.2246 18.2941 26.1173 19.747C22.9363 23.9211 22.4384 28.873 24.1067 33.6955C24.516 34.8783 24.9951 35.5664 24.8422 36.8894C24.5847 39.1153 22.823 41.0886 21.7663 43.0295L21.682 42.7124C21.5235 38.9669 17.6771 36.904 14.3475 35.6007C11.8158 34.6097 9.75528 34.4568 8.2803 32.0266C8.1094 31.745 7.96596 31.4453 7.83489 31.146L7.429 29.8343C7.41498 30.257 7.39989 30.6801 7.38285 31.1033C7.36837 31.4622 7.31528 31.8212 7.33594 32.188C7.41694 33.63 8.59976 36.1046 9.11409 37.5865C10.496 41.568 11.755 45.6481 11.9512 49.8568L10.3698 48.2947L9.78092 47.3594C10.1621 52.0267 12.9911 56.055 15.7057 59.8474C10.455 57.4946 6.22175 53.8493 3.84736 48.8857C3.13347 47.3932 2.5938 45.8282 2.04643 44.2787C3.55188 45.4452 5.73441 45.9198 7.60925 45.2572C3.39954 42.7313 0.887137 38.3471 0.463602 33.767C0.440675 33.5197 0.488941 33.2366 0.37265 32.9973V32.3729C0.528308 32.2845 0.458021 31.9966 0.463149 31.8318ZM9.78032 47.3169V47.1925H9.73597V47.3169H9.78032Z" fill="#FF6F00"/>
<path d="M25.8377 62.5527C23.6647 60.6485 22.2336 58.0965 22.0387 55.3095C22.9867 56.4673 23.5172 58.0758 25.2042 58.5146C25.22 58.4524 25.1888 58.4169 25.1623 58.3663C24.9958 58.0501 24.7479 57.7413 24.5776 57.4058C22.0004 52.3287 26.5036 49.0585 29.4028 45.3737C29.9019 44.7392 30.3607 44.0804 30.7909 43.4043C30.7979 44.592 31.0201 46.3419 30.0881 47.2948L29.4115 47.7746C31.0414 47.5165 32.1049 46.3323 33.0526 45.1943C33.2309 46.163 32.8696 47.2076 32.359 48.0526C31.4382 49.5763 29.9184 50.7039 28.6192 51.9376C28.5564 52.071 29.208 52.0144 29.3 52.0192C33.1124 52.2155 37.076 51.6388 40.3355 49.7323L41.8043 48.7742C40.1337 52.3352 35.4716 53.1293 32.8045 55.8303C33.6927 55.7388 34.9859 55.0087 35.8301 55.4588C36.8371 55.9955 35.9322 56.7111 35.5354 57.3036C35.5114 57.3394 35.4212 57.3945 35.4951 57.433C35.7534 57.3009 35.9623 57.109 36.2265 56.9821C36.9873 56.6168 37.9439 56.5003 38.7522 56.2261C39.0392 56.1287 39.3017 55.9886 39.5879 55.8925C39.5291 57.158 38.5626 58.0933 37.8247 59.0775L37.8912 59.1387C38.2896 58.8397 38.9413 58.742 39.1818 58.307C39.2419 58.2963 39.2291 58.323 39.2279 58.3696C39.2208 58.6434 39.0931 59.1077 39.0234 59.3895C38.7635 60.4414 38.3465 61.4471 37.8695 62.4278C36.3552 62.6656 34.8164 62.8146 33.279 62.8446L32.5322 62.9273C31.7808 62.9072 31.0215 62.9544 30.2706 62.9273C28.8134 62.8747 27.2825 62.7256 25.8377 62.5527ZM35.4718 57.4744H35.3817V57.5571H35.4718V57.4744ZM35.3813 57.5992H35.2912V57.682H35.3813V57.5992ZM35.2454 57.8486L35.2689 57.7247L35.201 57.787V57.8486H35.2454ZM37.8013 59.1809V59.2226C37.8308 59.2087 37.8308 59.1948 37.8013 59.1809Z" fill="#FDD348"/>
<path d="M0.463149 31.8318C0.458021 31.9966 0.528308 32.2845 0.37265 32.3729V31.8318L0.463149 31.8318Z" fill="#FDD348"/>
<path d="M56.0974 41.9473C56.0123 41.8502 56.056 41.6629 56.0521 41.5309L56.0974 41.5308V41.9473Z" fill="#FDD348"/>
<path d="M56.0974 44.4032L56.0521 44.4033C56.0541 44.2854 56.0147 44.1113 56.0974 44.0286L56.0974 44.4032Z" fill="#FDD348"/>
<path d="M50.9863 40.8231L51.0315 40.8233C51.0024 40.8446 50.9943 40.925 50.9189 40.9069L50.8961 40.8234L50.9863 40.8231Z" fill="#FDD348"/>
<path d="M48.182 11.8922V11.8506C48.2164 11.8345 48.2698 11.7534 48.3167 11.7878L48.182 11.8922Z" fill="#FDD348"/>
<path d="M48.182 11.9339L48.1368 11.9756C48.1464 11.9624 48.173 11.9526 48.182 11.9339Z" fill="#FDD348"/>
<path d="M9.78032 47.1925H9.73597V47.3169H9.78032V47.1925Z" fill="#FDA52F"/>
<path d="M35.4718 57.4744H35.3817V57.5571H35.4718V57.4744Z" fill="#FE9A10"/>
<path d="M35.3813 57.5992H35.2912V57.682H35.3813V57.5992Z" fill="#FE9A10"/>
<path d="M20.2292 61.4703C17.656 59.5934 15.6839 56.9176 15.1403 53.895C16.4195 55.0023 17.967 55.901 19.6854 56.2881C18.2465 53.9862 18.4831 51.1907 18.045 48.6403C17.5878 45.9796 16.3893 43.4807 15.0513 41.1136L12.6758 37.285C12.755 37.2172 14.0617 37.9426 14.2277 38.0417C18.2652 40.4539 20.8049 45.0146 20.4106 49.4615C20.4065 49.507 20.3776 49.6167 20.455 49.6062C21.5108 46.7191 24.3381 44.8946 26.4944 42.7385C28.1027 41.1303 29.6632 39.0268 30.0765 36.8355C30.9397 32.2584 26.8468 28.2185 27.8956 23.6306C28.0383 23.0064 28.2929 22.3548 28.7107 21.8418C28.1659 25.4752 31.6563 27.8644 33.3542 30.7212C35.0565 33.5855 35.3473 37.1407 34.1615 40.2201C34.0123 40.6073 33.8002 40.9728 33.6634 41.3639L34.4736 40.8819C35.4989 40.1386 36.4172 39.2471 37.0921 38.2132C37.3348 37.8416 37.5042 37.4203 37.7789 37.0764C38.5802 40.6804 38.1007 44.4861 36.3852 47.8028L35.6086 49.1482L38.0382 47.7006C41.0548 45.7943 43.9565 43.468 45.3215 40.2504L45.7847 38.9499C46.1431 41.1439 46.5015 43.3658 46.0886 45.5772C45.4484 49.0072 42.7976 51.6034 40.3131 54.04L46.265 50.0679C46.3505 50.0475 46.3167 50.0775 46.3375 50.1167C46.3755 50.1882 46.4242 50.31 46.4509 50.388C47.0902 52.2598 45.7924 54.2108 44.6913 55.6968C43.1485 57.779 41.3418 59.7124 40.0861 61.9694C39.3422 62.1472 38.6308 62.3084 37.8695 62.4278C38.3465 61.4471 38.7635 60.4414 39.0234 59.3895C39.0931 59.1077 39.2208 58.6434 39.2279 58.3696C39.2291 58.323 39.2419 58.2963 39.1818 58.307C38.9413 58.742 38.2896 58.8397 37.8912 59.1387L37.8247 59.0775C38.5626 58.0933 39.5291 57.158 39.5879 55.8925C39.3017 55.9886 39.0392 56.1287 38.7522 56.2261C37.9439 56.5003 36.9873 56.6168 36.2265 56.9821C35.9623 57.109 35.7534 57.3009 35.4951 57.433C35.4212 57.3945 35.5114 57.3394 35.5354 57.3036C35.9322 56.7111 36.8371 55.9955 35.8301 55.4588C34.9859 55.0087 33.6927 55.7388 32.8045 55.8303C35.4716 53.1293 40.1337 52.3352 41.8043 48.7742L40.3355 49.7323C37.076 51.6388 33.1124 52.2155 29.3 52.0192C29.208 52.0144 28.5564 52.071 28.6192 51.9376C29.9184 50.7039 31.4382 49.5763 32.359 48.0526C32.8696 47.2076 33.2309 46.163 33.0526 45.1943C32.1049 46.3323 31.0414 47.5165 29.4115 47.7746L30.0881 47.2948C31.0201 46.3419 30.7979 44.592 30.7909 43.4043C30.3607 44.0804 29.9019 44.7392 29.4028 45.3737C26.5036 49.0585 22.0004 52.3287 24.5776 57.4058C24.7479 57.7413 24.9958 58.0501 25.1623 58.3663C25.1888 58.4169 25.22 58.4524 25.2042 58.5146C23.5172 58.0758 22.9867 56.4673 22.0387 55.3095C22.2336 58.0965 23.6647 60.6485 25.8377 62.5527C23.9221 62.3235 22.0767 61.9791 20.2292 61.4703Z" fill="#FDD348"/>
<path d="M35.2454 57.8486H35.201V57.787L35.2689 57.7247L35.2454 57.8486Z" fill="#FE9A10"/>
<path d="M37.8013 59.2226C37.8308 59.2087 37.8308 59.1948 37.8013 59.1809V59.2226Z" fill="#FE9A10"/>
<path d="M15.7057 59.8474C12.9911 56.055 10.1621 52.0267 9.78092 47.3594L10.3698 48.2947L11.9512 49.8568C11.755 45.6481 10.496 41.568 9.11409 37.5865C8.59976 36.1046 7.41694 33.63 7.33594 32.188C7.31528 31.8212 7.36837 31.4622 7.38285 31.1033C7.39989 30.6801 7.41498 30.257 7.429 29.8343L7.83489 31.146C7.96596 31.4453 8.1094 31.745 8.2803 32.0266C9.75528 34.4568 11.8158 34.6097 14.3475 35.6007C17.6771 36.904 21.5235 38.9669 21.682 42.7124L21.7663 43.0295C22.823 41.0886 24.5847 39.1153 24.8422 36.8894C24.9951 35.5664 24.516 34.8783 24.1067 33.6955C22.4384 28.873 22.9363 23.9211 26.1173 19.747C27.2246 18.2941 28.591 17.0557 30.1123 15.9722C30.1151 16.5014 30.0506 17.0457 30.0875 17.5764C30.1984 19.167 31.1506 21.635 31.9655 23.0495C33.9574 26.5068 37.4048 29.4246 37.9148 33.4971L39.0386 31.6387L39.2707 30.958C39.891 34.1609 40.85 37.369 40.5382 40.6569C42.6613 37.829 46.1061 35.7823 47.1739 32.3404L47.4125 31.291C47.5125 32.8561 47.7169 34.4164 47.9632 35.967C48.059 36.5703 48.2335 37.1614 48.3117 37.7693C48.649 40.3878 48.2543 43.0198 48.0466 45.6319L48.0007 47.2343C48.9108 47.2265 49.7754 46.9171 50.6241 46.6515C50.907 51.0219 48.6124 54.9474 47.1868 58.9729C44.9419 60.4514 42.7557 61.3314 40.0861 61.9694C41.3418 59.7124 43.1485 57.779 44.6913 55.6968C45.7924 54.2108 47.0902 52.2598 46.4509 50.388C46.4242 50.31 46.3755 50.1882 46.3375 50.1167C46.3167 50.0775 46.3505 50.0475 46.265 50.0679L40.3131 54.04C42.7976 51.6034 45.4484 49.0072 46.0886 45.5772C46.5015 43.3658 46.1431 41.1439 45.7847 38.9499L45.3215 40.2504C43.9565 43.468 41.0548 45.7943 38.0382 47.7006L35.6086 49.1482L36.3852 47.8028C38.1007 44.4861 38.5802 40.6804 37.7789 37.0764C37.5042 37.4203 37.3348 37.8416 37.0921 38.2132C36.4172 39.2471 35.4989 40.1386 34.4736 40.8819L33.6634 41.3639C33.8002 40.9728 34.0123 40.6073 34.1615 40.2201C35.3473 37.1407 35.0565 33.5855 33.3542 30.7212C31.6563 27.8644 28.1659 25.4752 28.7107 21.8418C28.2929 22.3548 28.0383 23.0064 27.8956 23.6306C26.8468 28.2185 30.9397 32.2584 30.0765 36.8355C29.6632 39.0268 28.1027 41.1303 26.4944 42.7385C24.3381 44.8946 21.5108 46.7191 20.455 49.6062C20.3776 49.6167 20.4065 49.507 20.4106 49.4615C20.8049 45.0146 18.2652 40.4539 14.2277 38.0417C14.0617 37.9426 12.755 37.2172 12.6758 37.285L15.0513 41.1136C16.3893 43.4807 17.5878 45.9796 18.045 48.6403C18.4831 51.1907 18.2465 53.9862 19.6854 56.2881C17.967 55.901 16.4195 55.0023 15.1403 53.895C15.6839 56.9176 17.656 59.5934 20.2292 61.4703C18.6181 61.0266 17.2137 60.5231 15.7057 59.8474Z" fill="#FDA52F"/>
</svg>
