<svg width="131" height="20" viewBox="0 0 131 20" fill="none" xmlns="http://www.w3.org/2000/svg">
<g clip-path="url(#clip0_4020_678)">
<path fill-rule="evenodd" clip-rule="evenodd" d="M9.6215 16.3352H6.29092L3.79339 6.72327C3.67484 6.28113 3.42315 5.89023 3.0529 5.70601C2.12891 5.24303 1.11074 4.87457 0 4.68875V4.31868H5.36531C6.1058 4.31868 6.66116 4.87457 6.75372 5.52018L8.04959 12.4536L11.3785 4.31868H14.6166L9.6215 16.3352ZM16.472 16.3352H13.3265L15.9166 4.31868H19.0621L16.472 16.3352ZM23.1302 7.65344C23.2227 7.00623 23.7781 6.63618 24.4261 6.63618C25.4442 6.54326 26.5533 6.72909 27.4789 7.19047L28.0343 4.60324C27.1087 4.23319 26.0906 4.04736 25.1666 4.04736C22.1136 4.04736 19.8922 5.71182 19.8922 8.0219C19.8922 9.77923 21.4657 10.702 22.5765 11.2579C23.7781 11.8123 24.241 12.1823 24.1483 12.7366C24.1483 13.568 23.2227 13.938 22.2987 13.938C21.188 13.938 20.0773 13.6609 19.0608 13.1979L18.5054 15.7867C19.6161 16.2482 20.8178 16.434 21.9285 16.434C25.3517 16.5253 27.4789 14.8624 27.4789 12.3665C27.4789 9.22339 23.1302 9.03917 23.1302 7.65344ZM38.4906 16.3352L35.993 4.31868H33.3104C32.755 4.31868 32.1997 4.68874 32.0145 5.24303L27.3897 16.3352H30.6277L31.2739 14.5795H35.2525L35.6227 16.3352H38.4906ZM33.7599 7.57459L34.6839 12.1034H32.0938L33.7599 7.57459Z" fill="black"/>
<path d="M66.6217 1.23328C71.7086 1.23328 75.8326 5.26717 75.8326 10.2421C75.8323 15.2167 71.7085 19.2496 66.6217 19.2496C64.3443 19.2496 62.2618 18.4391 60.6542 17.0999C59.0465 18.4391 56.964 19.2496 54.6867 19.2496C49.6 19.2495 45.4761 15.2167 45.4758 10.2421C45.4758 5.26722 49.5999 1.23336 54.6867 1.23328C56.9636 1.23328 59.0466 2.04295 60.6542 3.38172C62.2618 2.04291 64.3447 1.2333 66.6217 1.23328Z" fill="#ED0006"/>
<path d="M66.6513 1.23328C71.7382 1.23328 75.8624 5.26717 75.8624 10.2421C75.8621 15.2167 71.7381 19.2496 66.6513 19.2496C64.3674 19.2495 62.2793 18.4346 60.6697 17.0883C62.6454 15.4363 63.9001 12.9835 63.9002 10.2421C63.9002 7.50008 62.6459 5.04543 60.6697 3.39329C62.2791 2.04743 64.3678 1.23334 66.6513 1.23328Z" fill="#F9A000"/>
<path d="M60.6658 3.3894C62.6496 5.04164 63.9093 7.50039 63.9093 10.2485C63.9092 12.9963 62.6494 15.454 60.6658 17.1063C58.6827 15.454 57.4236 12.9959 57.4236 10.2485C57.4236 7.50076 58.6824 5.04164 60.6658 3.3894Z" fill="#FF5E00"/>
<path fill-rule="evenodd" clip-rule="evenodd" d="M89.1508 4.10403C90.0364 4.17831 90.9219 3.65834 91.4753 2.99912C92.0196 2.32132 92.3793 1.4114 92.2871 0.48291C91.5031 0.520055 90.5345 1.00287 89.981 1.68066C89.4737 2.26562 89.0402 3.21267 89.1508 4.10403ZM99.6767 16.0624V1.5872H105.073C107.859 1.5872 109.805 3.51846 109.805 6.34107C109.805 9.16369 107.822 11.1134 104.999 11.1134H101.909V16.0624H99.6767ZM92.2779 4.28086C91.4977 4.23567 90.7858 4.51702 90.2108 4.74428C89.8409 4.89053 89.5275 5.01437 89.2891 5.01437C89.0216 5.01437 88.6953 4.88391 88.3291 4.73742C87.849 4.54548 87.3003 4.32604 86.7248 4.33657C85.4056 4.35515 84.1789 5.10721 83.5055 6.30498C82.1218 8.70048 83.1457 12.2473 84.4832 14.1971C85.1382 15.1628 85.9222 16.2212 86.9554 16.1841C87.4099 16.1669 87.7368 16.0271 88.0751 15.8827C88.4647 15.7163 88.8695 15.5434 89.5013 15.5434C90.1112 15.5434 90.4982 15.7117 90.8697 15.8733C91.2228 16.027 91.5621 16.1746 92.0656 16.1656C93.1357 16.147 93.8091 15.1999 94.464 14.2342C95.1707 13.1979 95.4813 12.1865 95.5285 12.0329L95.5339 12.0152C95.5329 12.0141 95.5241 12.01 95.5087 12.0029C95.2725 11.8941 93.4666 11.0619 93.4493 8.83046C93.4318 6.95749 94.8817 6.00853 95.1098 5.85915C95.1237 5.85007 95.1331 5.84392 95.1374 5.84073C94.2149 4.46656 92.7759 4.318 92.2779 4.28086ZM113.891 16.1729C115.293 16.1729 116.594 15.4581 117.184 14.3253H117.23V16.0615H119.297V8.85644C119.297 6.76734 117.636 5.42103 115.081 5.42103C112.71 5.42103 110.958 6.78591 110.893 8.66146H112.904C113.07 7.77011 113.891 7.18516 115.016 7.18516C116.382 7.18516 117.147 7.82582 117.147 9.005V9.80345L114.362 9.97069C111.769 10.1284 110.367 11.1962 110.367 13.0532C110.367 14.9287 111.816 16.1729 113.891 16.1729ZM114.491 14.4579C113.301 14.4579 112.545 13.8823 112.545 13.0002C112.545 12.0903 113.274 11.5611 114.666 11.4775L117.148 11.3196V12.1367C117.148 13.4923 116.004 14.4579 114.491 14.4579ZM126.155 16.6298C125.26 19.1645 124.236 20.0002 122.059 20.0002C121.894 20.0002 121.34 19.9816 121.211 19.9444V18.2082C121.349 18.2267 121.691 18.2453 121.866 18.2453C122.853 18.2453 123.406 17.8275 123.747 16.7411L123.95 16.1004L120.169 5.56212H122.502L125.131 14.1134H125.177L127.806 5.56212H130.075L126.155 16.6298ZM101.909 3.48377H104.482C106.419 3.48377 107.526 4.52367 107.526 6.3528C107.526 8.18192 106.419 9.23112 104.473 9.23112H101.909V3.48377Z" fill="black"/>
</g>
<defs>
<clipPath id="clip0_4020_678">
<rect width="131" height="20" fill="white"/>
</clipPath>
</defs>
</svg>
