<svg width="60" height="20" viewBox="0 0 60 20" fill="none" xmlns="http://www.w3.org/2000/svg">
<g clip-path="url(#clip0_4023_1371)">
<g clip-path="url(#clip1_4023_1371)">
<path d="M10 20C15.5229 20 20 15.5229 20 10C20 4.47715 15.5229 0 10 0C4.47715 0 0 4.47715 0 10C0 15.5229 4.47715 20 10 20Z" fill="#2775CA"/>
<path d="M8.12547 16.9529C8.12547 17.1883 7.9412 17.3216 7.71373 17.251C4.69021 16.2863 2.49805 13.451 2.49805 10.1059C2.49805 6.7608 4.69021 3.92549 7.71373 2.96079C7.9412 2.8902 8.12547 3.02353 8.12547 3.25883V3.83921C8.12547 3.99608 8.00393 4.18039 7.85493 4.23137C5.46275 5.10981 3.74903 7.40787 3.74903 10.1019C3.74903 12.7961 5.46275 15.0941 7.85493 15.9725C8.00393 16.0275 8.12547 16.2079 8.12547 16.3647V16.9529Z" fill="white"/>
<path d="M10.6234 14.7921C10.6234 14.9647 10.4822 15.1059 10.3096 15.1059H9.68611C9.51357 15.1059 9.37237 14.9647 9.37237 14.7921V13.8039C8.00771 13.6196 7.34104 12.8549 7.16064 11.8157C7.12924 11.6392 7.27044 11.4784 7.45084 11.4784H8.16451C8.31357 11.4784 8.43904 11.5843 8.47044 11.7333C8.60377 12.3529 8.96064 12.8275 10.0547 12.8275C10.8626 12.8275 11.4351 12.3765 11.4351 11.7019C11.4351 11.0275 11.0978 10.7725 9.91357 10.5765C8.16451 10.3412 7.33711 9.81172 7.33711 8.43919C7.33711 7.38039 8.13711 6.55684 9.37631 6.38038V5.41175C9.37631 5.2392 9.51751 5.09802 9.69004 5.09802H10.3136C10.4861 5.09802 10.6273 5.2392 10.6273 5.41175V6.40782C11.6351 6.58822 12.2744 7.16079 12.4822 8.10979C12.5214 8.29019 12.3802 8.45879 12.1959 8.45879H11.5371C11.3959 8.45879 11.2782 8.36466 11.2351 8.22746C11.0586 7.62352 10.6273 7.36466 9.87824 7.36466C9.05084 7.36466 8.62337 7.76466 8.62337 8.32546C8.62337 8.91766 8.86651 9.21566 10.1371 9.39999C11.8547 9.63526 12.741 10.1255 12.741 11.5882C12.741 12.698 11.9175 13.5961 10.6273 13.8039V14.7921H10.6234Z" fill="white"/>
<path d="M12.2858 17.2511C12.0584 17.3217 11.874 17.1883 11.874 16.953V16.3726C11.874 16.2001 11.9799 16.0393 12.1446 15.9805C14.5368 15.1021 16.2505 12.804 16.2505 10.1099C16.2505 7.41573 14.5368 5.11771 12.1446 4.23928C11.9956 4.18438 11.874 4.00399 11.874 3.84713V3.26673C11.874 3.03144 12.0584 2.89419 12.2858 2.96869C15.3094 3.9334 17.5015 6.76866 17.5015 10.1138C17.4976 13.4511 15.3094 16.2824 12.2858 17.2511Z" fill="white"/>
</g>
<mask id="mask0_4023_1371" style="mask-type:luminance" maskUnits="userSpaceOnUse" x="12" y="0" width="48" height="20">
<path d="M60 0H12V20H60V0Z" fill="white"/>
</mask>
<g mask="url(#mask0_4023_1371)">
<mask id="mask1_4023_1371" style="mask-type:luminance" maskUnits="userSpaceOnUse" x="12" y="0" width="21" height="20">
<path d="M32.9609 0H12.9609V20H32.9609V0Z" fill="white"/>
</mask>
<g mask="url(#mask1_4023_1371)">
<path d="M22.9531 20.0049C28.476 20.0049 32.9531 15.5277 32.9531 10.0049C32.9531 4.48204 28.476 0.00488281 22.9531 0.00488281C17.4303 0.00488281 12.9531 4.48204 12.9531 10.0049C12.9531 15.5277 17.4303 20.0049 22.9531 20.0049Z" fill="#00A478"/>
<path d="M22.9531 0.560547C28.1691 0.560547 32.3975 4.78886 32.3975 10.0049C32.3975 15.2209 28.1691 19.4492 22.9531 19.4492C17.7371 19.4492 13.5088 15.2209 13.5088 10.0049C13.5088 4.78886 17.7371 0.560547 22.9531 0.560547Z" stroke="black" stroke-opacity="0.3" stroke-width="1.11111"/>
</g>
<path fill-rule="evenodd" clip-rule="evenodd" d="M23.8958 10.3758V10.3747C23.834 10.3792 23.5153 10.3983 22.8042 10.3983C22.2365 10.3983 21.8369 10.3814 21.6964 10.3747V10.3763C19.511 10.2802 17.8798 9.89967 17.8798 9.44437C17.8798 8.98966 19.511 8.60913 21.6964 8.51133V9.99747C21.8391 10.0076 22.2483 10.0318 22.8138 10.0318C23.4922 10.0318 23.8323 10.0037 23.8958 9.99807V8.51245C26.0767 8.60969 27.7039 8.99022 27.7039 9.44437C27.7039 9.89967 26.0767 10.2791 23.8958 10.3758ZM23.8958 8.35788V7.02799H26.9389V5H18.6533V7.02799H21.6964V8.35732C19.2232 8.47086 17.3633 8.96099 17.3633 9.54777C17.3633 10.1347 19.2232 10.6242 21.6964 10.7383V15H23.8958V10.7372C26.365 10.6237 28.2205 10.1341 28.2205 9.54777C28.2205 8.96156 26.365 8.47198 23.8958 8.35788Z" fill="white"/>
<mask id="mask2_4023_1371" style="mask-type:luminance" maskUnits="userSpaceOnUse" x="27" y="0" width="21" height="20">
<path d="M47.2988 0H27.2988V20H47.2988V0Z" fill="white"/>
</mask>
<g mask="url(#mask2_4023_1371)">
<path d="M37.2949 20C42.8178 20 47.2949 15.5228 47.2949 10C47.2949 4.47715 42.8178 0 37.2949 0C31.7721 0 27.2949 4.47715 27.2949 10C27.2949 15.5228 31.7721 20 37.2949 20Z" fill="#5A7FF2"/>
<path d="M37.2949 0.555664C42.5109 0.555664 46.7393 4.78398 46.7393 10C46.7393 15.216 42.5109 19.4443 37.2949 19.4443C32.0789 19.4443 27.8506 15.216 27.8506 10C27.8506 4.78398 32.0789 0.555664 37.2949 0.555664Z" stroke="black" stroke-opacity="0.3" stroke-width="1.11111"/>
<path d="M37.293 3.99707V8.43296L41.0422 10.1083L37.293 3.99707Z" fill="white" fill-opacity="0.602"/>
<path d="M37.2927 3.99707L33.543 10.1083L37.2927 8.43296V3.99707Z" fill="white"/>
<path d="M37.293 12.988V16.0021L41.0447 10.8115L37.293 12.988Z" fill="white" fill-opacity="0.602"/>
<path d="M37.2927 16.0021V12.9875L33.543 10.8115L37.2927 16.0021Z" fill="white"/>
<path d="M37.293 12.2839L41.0422 10.107L37.293 8.43262V12.2839Z" fill="white" fill-opacity="0.2"/>
<path d="M33.543 10.107L37.2927 12.2839V8.43262L33.543 10.107Z" fill="white" fill-opacity="0.602"/>
</g>
<mask id="mask3_4023_1371" style="mask-type:luminance" maskUnits="userSpaceOnUse" x="40" y="0" width="20" height="20">
<path d="M60 0H40V20H60V0Z" fill="white"/>
</mask>
<g mask="url(#mask3_4023_1371)">
<path d="M59.2957 10C59.2957 15.1339 55.1338 19.2958 49.9999 19.2958C44.866 19.2958 40.7041 15.1339 40.7041 10C40.7041 4.86608 44.866 0.704224 49.9999 0.704224C55.1338 0.704224 59.2957 4.86608 59.2957 10Z" fill="white" stroke="#7664E9"/>
<path d="M45.5681 5.1721C45.6003 5.10966 45.6647 5.07043 45.735 5.07043H55.4263C55.567 5.07043 55.6578 5.21936 55.5933 5.34436L54.392 7.67166C54.3598 7.7341 54.2954 7.77332 54.2252 7.77332H44.5338C44.3931 7.77332 44.3024 7.62439 44.3669 7.49939L45.5681 5.1721Z" fill="#7664E9"/>
<path d="M45.5681 12.2345C45.6003 12.1721 45.6647 12.1328 45.735 12.1328H55.4263C55.567 12.1328 55.6578 12.2817 55.5933 12.4068L54.392 14.734C54.3598 14.7965 54.2954 14.8357 54.2252 14.8357H44.5338C44.3931 14.8357 44.3024 14.6868 44.3669 14.5618L45.5681 12.2345Z" fill="#7664E9"/>
<path d="M54.392 8.65965C54.3598 8.5972 54.2954 8.55798 54.2252 8.55798H44.5338C44.3931 8.55798 44.3024 8.70691 44.3669 8.8319L45.5681 11.1592C45.6003 11.2217 45.6647 11.2609 45.735 11.2609H55.4263C55.567 11.2609 55.6578 11.1119 55.5933 10.9869L54.392 8.65965Z" fill="#7664E9"/>
</g>
</g>
</g>
<defs>
<clipPath id="clip0_4023_1371">
<rect width="60" height="20" fill="white"/>
</clipPath>
<clipPath id="clip1_4023_1371">
<rect width="20" height="20" fill="white"/>
</clipPath>
</defs>
</svg>
