<svg width="92" height="92" viewBox="0 0 92 92" fill="none" xmlns="http://www.w3.org/2000/svg">
<g clip-path="url(#clip0_3026_7537)">
<path d="M39.4841 84.9915C61.2905 88.3181 81.6649 73.3372 84.9915 51.5308C88.3181 29.7243 73.3372 9.34998 51.5308 6.02336C29.7244 2.69675 9.35 17.6776 6.02339 39.4841C2.69678 61.2905 17.6776 81.6649 39.4841 84.9915Z" fill="#6481E7"/>
<path fill-rule="evenodd" clip-rule="evenodd" d="M50.2083 17.7964L44.1278 57.6545L63.436 49.8863L50.2083 17.7964Z" fill="#C1CCF5"/>
<path fill-rule="evenodd" clip-rule="evenodd" d="M28.019 44.4836L44.1327 57.6554L50.2131 17.7973L28.019 44.4836Z" fill="white"/>
<path fill-rule="evenodd" clip-rule="evenodd" d="M46.9592 39.1359L28.0191 44.4832L44.1328 57.6554L63.4424 49.8883L46.9592 39.1359Z" fill="#8299EC"/>
<path fill-rule="evenodd" clip-rule="evenodd" d="M43.6168 61.0047L41.4054 75.5005L62.9359 53.2439L43.6168 61.0047Z" fill="#C1CCF5"/>
<path fill-rule="evenodd" clip-rule="evenodd" d="M46.9592 39.1359L28.0191 44.4832L44.1328 57.6554L46.9592 39.1359Z" fill="#C1CCF5"/>
<path fill-rule="evenodd" clip-rule="evenodd" d="M27.507 47.8394L41.4103 75.5002L43.6215 61.0056L27.507 47.8394Z" fill="white"/>
</g>
<defs>
<clipPath id="clip0_3026_7537">
<rect width="79.8817" height="79.8817" fill="white" transform="translate(12.0468) rotate(8.6737)"/>
</clipPath>
</defs>
</svg>
