<svg width="20" height="21" viewBox="0 0 20 21" fill="none" xmlns="http://www.w3.org/2000/svg">
<path d="M7.57508 8C7.771 7.44306 8.15771 6.97342 8.66671 6.67428C9.17571 6.37513 9.77416 6.26578 10.3561 6.36559C10.938 6.4654 11.4658 6.76794 11.846 7.21961C12.2262 7.67128 12.4343 8.24293 12.4334 8.83333C12.4334 10.5 9.93342 11.3333 9.93342 11.3333M10.0001 14.6667H10.0084M18.3334 10.5C18.3334 15.1024 14.6025 18.8333 10.0001 18.8333C5.39771 18.8333 1.66675 15.1024 1.66675 10.5C1.66675 5.89763 5.39771 2.16667 10.0001 2.16667C14.6025 2.16667 18.3334 5.89763 18.3334 10.5Z" stroke="black" stroke-width="2" stroke-linecap="round" stroke-linejoin="round"/>
</svg>
