<svg width="1310" height="104" viewBox="0 0 1310 104" fill="none" xmlns="http://www.w3.org/2000/svg">
<path d="M100.523 16.0618L106.408 14.2C106.408 14.2 119.349 29.2462 123.837 44.4986C128.326 59.7509 128.709 66.0891 128.709 66.0891C128.709 66.0891 108.887 46.0019 106.266 37.137C103.644 28.2718 100.523 16.0618 100.523 16.0618Z" fill="#CCB49D"/>
<path d="M127.658 71.5214C136.004 68.3448 102.747 12.8798 102.747 12.8798C102.747 12.8798 87.8225 17.9925 86.4892 19.5809C85.1559 21.169 92.3045 49.868 100.371 59.5554C108.438 69.2427 127.658 71.5214 127.658 71.5214Z" fill="#AD9985"/>
<path d="M87.2315 11.3104C90.2658 10.9472 94.0252 10.7692 94.0252 10.7692C94.0252 10.7692 101.853 26.1279 108.452 39.8386C115.05 53.5493 127.657 71.5212 127.657 71.5212C127.657 71.5212 98.6694 54.2934 89.032 35.8399C79.3951 17.3863 87.2315 11.3104 87.2315 11.3104Z" fill="#CCB49D"/>
<path d="M127.655 71.5182C127.655 71.5182 76.101 95.9562 48.2629 102.861C37.9108 105.432 28.5783 97.6229 20.9484 86.7993C8.05962 68.5386 0 41.6891 0 41.6891C0 41.6891 48.127 13.0747 90.4249 9C90.4249 9 99.6963 24.9653 107.023 41.96C109.752 48.277 113.305 53.994 116.692 58.6687C122.407 66.5646 127.655 71.5182 127.655 71.5182Z" fill="#F2E6DA"/>
<path opacity="0.3" d="M80.536 13.2583C33.2082 27.3459 3.78906 44.3622 3.78906 44.3622C3.78906 44.3622 9.84432 57.3717 12.8841 58.2374C15.9237 59.1034 47.7912 47.6958 64.1771 38.073C80.5632 28.4499 87.5854 27.485 87.5854 27.485L80.536 13.2583Z" fill="#C7BDB3"/>
<path opacity="0.3" d="M64.5556 49.4044C67.3339 60.8986 77.5888 75.5172 80.9354 78.8709C84.2816 82.2249 109.214 73.1312 109.526 71.1527C109.838 69.1738 88.9202 33.0521 88.9202 33.0521C88.9202 33.0521 63.902 46.7006 64.5556 49.4044Z" fill="#C7BDB3"/>
<path opacity="0.4" d="M127.656 71.5182C127.656 71.5182 76.1018 95.9563 48.2637 102.861C37.9116 105.432 28.5791 97.6229 20.9492 86.7993C31.5825 93.3731 47.7617 95.5022 73.351 89.2649C97.3128 83.416 109.987 70.5049 116.693 58.6687C122.408 66.5646 127.656 71.5182 127.656 71.5182Z" fill="#C7BDB3"/>
<path opacity="0.3" d="M56.5905 50.1495C47.0064 54.1711 17.7865 64.9876 17.4972 66.7455C17.2077 68.5033 21.8967 77.3541 22.7366 77.8856C23.5763 78.4174 62.1578 64.6731 62.0062 61.754C61.8546 58.8349 57.3261 49.8407 56.5905 50.1495Z" fill="#C7BDB3"/>
<path opacity="0.3" d="M62.947 65.7193C53.3629 69.7409 24.143 80.5577 23.8535 82.3153C23.5642 84.0731 25.2389 85.1814 26.0786 85.7131C26.9185 86.2449 65.4998 72.5007 65.3484 69.5815C65.1968 66.6624 63.6829 65.4106 62.947 65.7193Z" fill="#C7BDB3"/>
<path opacity="0.3" d="M67.9002 74.7231C58.316 78.7447 29.0961 89.5615 28.8066 91.319C28.5174 93.0766 30.1921 94.1848 31.032 94.7166C31.8716 95.2484 70.4532 81.5042 70.3016 78.585C70.1502 75.6665 68.6357 74.4143 67.9002 74.7231Z" fill="#C7BDB3"/>
<path d="M1297.18 40.8273L1299.93 42.4283C1299.93 42.4283 1298.67 52.5854 1294.4 59.5868C1290.13 66.5881 1287.85 68.9319 1287.85 68.9319C1287.85 68.9319 1288.64 54.4002 1291.12 50.326C1293.6 46.2517 1297.18 40.8273 1297.18 40.8273Z" fill="#CCB49D"/>
<path d="M1285.41 70.4126C1289.51 72.4975 1299.16 40.5718 1299.16 40.5718C1299.16 40.5718 1292.03 36.6462 1290.97 36.6879C1289.9 36.7294 1281.42 49.4082 1280.52 55.8464C1279.62 62.2846 1285.41 70.4126 1285.41 70.4126Z" fill="#AD9985"/>
<path d="M1294.38 34.1043C1295.57 35.1368 1296.94 36.5104 1296.94 36.5104C1296.94 36.5104 1293.79 44.8236 1290.85 52.0962C1287.9 59.3687 1285.41 70.4125 1285.41 70.4125C1285.41 70.4125 1281.94 53.3727 1285.64 43.2957C1289.35 33.2189 1294.38 34.1043 1294.38 34.1043Z" fill="#CCB49D"/>
<path d="M1285.41 70.4112C1285.41 70.4112 1258.21 59.2007 1245.92 50.9661C1241.35 47.9053 1241.1 41.635 1242.58 34.9696C1245.09 23.7182 1252.54 11.3328 1252.54 11.3328C1252.54 11.3328 1280.15 19.7868 1296.37 34.523C1296.37 34.523 1293.49 43.5976 1289.54 52.2868C1288.08 55.5185 1287.13 58.857 1286.52 61.7707C1285.48 66.6901 1285.41 70.4112 1285.41 70.4112Z" fill="#F2E6DA"/>
<path opacity="0.3" d="M1291.32 32.2242C1269.53 19.0391 1252.84 13.7066 1252.84 13.7066C1252.84 13.7066 1249.97 20.5286 1250.69 21.9893C1251.41 23.4499 1266.82 31.6617 1276.17 34.5815C1285.53 37.5013 1288.33 39.8478 1288.33 39.8478L1291.32 32.2242Z" fill="#C7BDB3"/>
<path opacity="0.3" d="M1271.98 38.6549C1268.55 43.7004 1266.53 52.6837 1266.41 55.124C1266.29 57.5643 1278.4 63.9305 1279.27 63.3636C1280.13 62.7967 1286.67 42.2878 1286.67 42.2878C1286.67 42.2878 1272.79 37.4679 1271.98 38.6549Z" fill="#C7BDB3"/>
<path opacity="0.4" d="M1285.41 70.411C1285.41 70.411 1258.21 59.2006 1245.92 50.966C1241.35 47.9051 1241.1 41.6349 1242.58 34.9695C1243.76 41.3082 1248.56 48.2233 1259.81 55.8305C1270.35 62.9511 1279.67 63.3139 1286.52 61.7707C1285.48 66.69 1285.41 70.411 1285.41 70.411Z" fill="#C7BDB3"/>
<path opacity="0.3" d="M1268.93 35.8717C1264.08 33.6069 1249.82 26.201 1249.04 26.7C1248.27 27.1989 1246.52 32.0575 1246.61 32.5624C1246.7 33.0674 1265.32 43.0324 1266.38 41.9625C1267.44 40.8926 1269.31 36.0455 1268.93 35.8717Z" fill="#C7BDB3"/>
<path opacity="0.3" d="M1265.19 43.6956C1260.33 41.4307 1246.07 34.025 1245.3 34.5238C1244.53 35.0228 1244.69 36.0463 1244.78 36.5513C1244.86 37.0563 1263.49 47.0212 1264.55 45.9514C1265.61 44.8815 1265.56 43.8695 1265.19 43.6956Z" fill="#C7BDB3"/>
<path opacity="0.3" d="M1263.47 48.7082C1258.61 46.4433 1244.35 39.0376 1243.58 39.5363C1242.81 40.0352 1242.97 41.0588 1243.05 41.5638C1243.14 42.0688 1261.77 52.0338 1262.83 50.9639C1263.89 49.8943 1263.84 48.882 1263.47 48.7082Z" fill="#C7BDB3"/>
</svg>
