<svg width="65" height="63" viewBox="0 0 65 63" fill="none" xmlns="http://www.w3.org/2000/svg">
<g filter="url(#filter0_d_2123_160)">
<circle cx="30.5" cy="30.5" r="28.3214" transform="matrix(-1 0 0 1 65 0)" fill="url(#paint0_linear_2123_160)" stroke="black" stroke-width="4.35714"/>
<path d="M40.5994 14.4186C40.5119 15.2424 38.8094 16.374 38.1879 16.7881C36.5536 17.8771 35.081 19.19 33.4579 20.323C31.0459 22.0067 28.9902 24.1557 26.576 25.7807C25.22 26.6935 23.9649 28.1846 22.8291 29.3739C22.6543 29.5568 21.5607 30.3236 21.7717 30.5004C22.5144 31.1225 23.3685 31.3629 24.1646 31.8988C28.2309 34.6359 32.0238 37.9526 35.4241 41.5129C36.7289 42.8792 39.1262 44.8957 39.9316 46.5822" stroke="white" stroke-width="5.44643" stroke-linecap="round"/>
</g>
<defs>
<filter id="filter0_d_2123_160" x="0.702703" y="0" width="64.2973" height="62.6486" filterUnits="userSpaceOnUse" color-interpolation-filters="sRGB">
<feFlood flood-opacity="0" result="BackgroundImageFix"/>
<feColorMatrix in="SourceAlpha" type="matrix" values="0 0 0 0 0 0 0 0 0 0 0 0 0 0 0 0 0 0 127 0" result="hardAlpha"/>
<feOffset dx="-3.2973" dy="1.64865"/>
<feComposite in2="hardAlpha" operator="out"/>
<feColorMatrix type="matrix" values="0 0 0 0 0 0 0 0 0 0 0 0 0 0 0 0 0 0 0.25 0"/>
<feBlend mode="normal" in2="BackgroundImageFix" result="effect1_dropShadow_2123_160"/>
<feBlend mode="normal" in="SourceGraphic" in2="effect1_dropShadow_2123_160" result="shape"/>
</filter>
<linearGradient id="paint0_linear_2123_160" x1="30.5" y1="61" x2="15.25" y2="3.63588e-06" gradientUnits="userSpaceOnUse">
<stop offset="0.0833375" stop-color="#89C6FF"/>
<stop offset="0.366363" stop-color="#0083FF"/>
<stop offset="0.515" stop-color="#79B9F4"/>
<stop offset="0.79252" stop-color="#0083FF"/>
</linearGradient>
</defs>
</svg>
