<svg width="56" height="70" viewBox="0 0 56 70" fill="none" xmlns="http://www.w3.org/2000/svg">
<path d="M5.98396 3.89914C5.62324 6.07533 5.26385 8.25106 4.90313 10.4272C24.6997 -1.28141 51.4147 9.81379 55.3121 33.366C57.3362 45.5954 50.5438 57.5178 40.4983 64.0815C29.9637 70.9634 16.3855 69.5343 4.82868 66.6218C1.28237 65.7281 4.08954 63.2383 6.68062 63.8904C17.1555 66.5296 27.9869 67.1568 37.3826 61.0184C45.1909 55.917 49.7172 46.8805 50.2247 37.7397C50.758 28.1158 45.377 18.7752 37.8399 13.1733C28.8219 6.47007 16.1948 7.85849 7.32037 13.9035C9.30446 13.6736 11.289 13.4451 13.2731 13.2153C15.0046 13.0154 17.6177 17.6725 15.7653 17.8866C12.8103 18.2277 9.85627 18.5692 6.90131 18.9102C4.7757 19.1556 3.04788 18.5293 1.70615 16.8517C0.215298 14.9875 0.152369 13.3104 0.52797 11.0405C1.09302 7.62748 1.65717 4.21406 2.22222 0.801069C2.60992 -1.54289 6.24731 2.30928 5.98396 3.89914Z" fill="black"/>
</svg>
