<svg width="66" height="63" viewBox="0 0 66 63" fill="none" xmlns="http://www.w3.org/2000/svg">
<g filter="url(#filter0_d_2123_156)">
<circle cx="34.7026" cy="30.5" r="28.3214" fill="url(#paint0_linear_2123_156)" stroke="black" stroke-width="4.35714"/>
<path d="M28.6033 14.4186C28.6907 15.2424 30.3932 16.374 31.0147 16.7881C32.6491 17.8771 34.1217 19.19 35.7448 20.323C38.1568 22.0067 40.2124 24.1557 42.6266 25.7807C43.9826 26.6935 45.2377 28.1846 46.3736 29.3739C46.5483 29.5568 47.6419 30.3236 47.4309 30.5004C46.6882 31.1225 45.8342 31.3629 45.038 31.8988C40.9717 34.6359 37.1788 37.9526 33.7785 41.5129C32.4737 42.8792 30.0764 44.8957 29.271 46.5822" stroke="black" stroke-width="5.44643" stroke-linecap="round"/>
</g>
<defs>
<filter id="filter0_d_2123_156" x="0.905339" y="0" width="64.2973" height="62.6486" filterUnits="userSpaceOnUse" color-interpolation-filters="sRGB">
<feFlood flood-opacity="0" result="BackgroundImageFix"/>
<feColorMatrix in="SourceAlpha" type="matrix" values="0 0 0 0 0 0 0 0 0 0 0 0 0 0 0 0 0 0 127 0" result="hardAlpha"/>
<feOffset dx="-3.2973" dy="1.64865"/>
<feComposite in2="hardAlpha" operator="out"/>
<feColorMatrix type="matrix" values="0 0 0 0 0 0 0 0 0 0 0 0 0 0 0 0 0 0 0.25 0"/>
<feBlend mode="normal" in2="BackgroundImageFix" result="effect1_dropShadow_2123_156"/>
<feBlend mode="normal" in="SourceGraphic" in2="effect1_dropShadow_2123_156" result="shape"/>
</filter>
<linearGradient id="paint0_linear_2123_156" x1="56.1351" y1="-1.16193e-08" x2="19.4526" y2="57.7027" gradientUnits="userSpaceOnUse">
<stop offset="0.24629" stop-color="#00FF38"/>
<stop offset="0.457986" stop-color="#BDFFCB"/>
<stop offset="0.652732" stop-color="#00FF38"/>
<stop offset="0.846437" stop-color="#60FF83"/>
<stop offset="0.908879" stop-color="#AFFFC1"/>
</linearGradient>
</defs>
</svg>
