<svg width="45" height="45" viewBox="0 0 45 45" fill="none" xmlns="http://www.w3.org/2000/svg">
<rect x="0.320801" y="0.104492" width="44.3585" height="44.3585" rx="5.17743" fill="black"/>
<path d="M15.1627 6.65198C10.4047 6.65198 6.53369 10.523 6.53369 15.281V29.0875C6.53369 33.8456 10.4047 37.7166 15.1627 37.7166H28.9692C33.7273 37.7166 37.5983 33.8456 37.5983 29.0875V15.281C37.5983 10.523 33.7273 6.65198 28.9692 6.65198H15.1627ZM15.1627 10.1036H28.9692C31.8237 10.1036 34.1467 12.4265 34.1467 15.281V29.0875C34.1467 31.942 31.8237 34.2649 28.9692 34.2649H15.1627C12.3083 34.2649 9.98531 31.942 9.98531 29.0875V15.281C9.98531 12.4265 12.3083 10.1036 15.1627 10.1036ZM30.695 11.8294C30.2373 11.8294 29.7984 12.0112 29.4747 12.3349C29.151 12.6585 28.9692 13.0975 28.9692 13.5552C28.9692 14.0129 29.151 14.4519 29.4747 14.7755C29.7984 15.0992 30.2373 15.281 30.695 15.281C31.1527 15.281 31.5917 15.0992 31.9154 14.7755C32.239 14.4519 32.4208 14.0129 32.4208 13.5552C32.4208 13.0975 32.239 12.6585 31.9154 12.3349C31.5917 12.0112 31.1527 11.8294 30.695 11.8294ZM22.066 13.5552C17.3079 13.5552 13.4369 17.4262 13.4369 22.1843C13.4369 26.9423 17.3079 30.8133 22.066 30.8133C26.824 30.8133 30.695 26.9423 30.695 22.1843C30.695 17.4262 26.824 13.5552 22.066 13.5552ZM22.066 17.0068C24.9205 17.0068 27.2434 19.3298 27.2434 22.1843C27.2434 25.0388 24.9205 27.3617 22.066 27.3617C19.2115 27.3617 16.8886 25.0388 16.8886 22.1843C16.8886 19.3298 19.2115 17.0068 22.066 17.0068Z" fill="white"/>
</svg>
