<svg width="43" height="44" viewBox="0 0 43 44" fill="none" xmlns="http://www.w3.org/2000/svg">
<rect y="0.676636" width="42.8383" height="42.8383" fill="black"/>
<path d="M14.3333 7C9.73833 7 6 10.7383 6 15.3333V28.6667C6 33.2617 9.73833 37 14.3333 37H27.6667C32.2617 37 36 33.2617 36 28.6667V15.3333C36 10.7383 32.2617 7 27.6667 7H14.3333ZM14.3333 10.3333H27.6667C30.4233 10.3333 32.6667 12.5767 32.6667 15.3333V28.6667C32.6667 31.4233 30.4233 33.6667 27.6667 33.6667H14.3333C11.5767 33.6667 9.33333 31.4233 9.33333 28.6667V15.3333C9.33333 12.5767 11.5767 10.3333 14.3333 10.3333ZM29.3333 12C28.8913 12 28.4674 12.1756 28.1548 12.4882C27.8423 12.8007 27.6667 13.2246 27.6667 13.6667C27.6667 14.1087 27.8423 14.5326 28.1548 14.8452C28.4674 15.1577 28.8913 15.3333 29.3333 15.3333C29.7754 15.3333 30.1993 15.1577 30.5118 14.8452C30.8244 14.5326 31 14.1087 31 13.6667C31 13.2246 30.8244 12.8007 30.5118 12.4882C30.1993 12.1756 29.7754 12 29.3333 12ZM21 13.6667C16.405 13.6667 12.6667 17.405 12.6667 22C12.6667 26.595 16.405 30.3333 21 30.3333C25.595 30.3333 29.3333 26.595 29.3333 22C29.3333 17.405 25.595 13.6667 21 13.6667ZM21 17C23.7567 17 26 19.2433 26 22C26 24.7567 23.7567 27 21 27C18.2433 27 16 24.7567 16 22C16 19.2433 18.2433 17 21 17Z" fill="white"/>
</svg>
