<svg width="46" height="45" viewBox="0 0 46 45" fill="none" xmlns="http://www.w3.org/2000/svg">
<rect x="0.971436" y="0.104492" width="44.3585" height="44.3585" rx="5.17743" fill="black"/>
<path fill-rule="evenodd" clip-rule="evenodd" d="M33.1749 9.60801C33.5314 9.44493 33.9216 9.38868 34.3049 9.44513C34.6881 9.50157 35.0505 9.66865 35.3542 9.92896C35.6579 10.1893 35.8919 10.5333 36.0317 10.9253C36.1716 11.3172 36.2123 11.7428 36.1495 12.1576L32.8778 33.7287C32.5604 35.8094 30.46 37.0027 28.7045 35.9662C27.2359 35.0991 25.0548 33.7632 23.0929 32.3692C22.112 31.6714 19.1071 29.437 19.4764 27.8471C19.7938 26.4876 24.8427 21.379 27.7278 18.3418C28.8603 17.1486 28.3438 16.4602 27.0066 17.5578C23.6858 20.283 18.3541 24.4273 16.5913 25.5938C15.0362 26.6225 14.2255 26.7981 13.2561 26.6225C11.4876 26.3026 9.84737 25.8071 8.50867 25.2034C6.69971 24.3881 6.78771 21.6848 8.50723 20.8977L33.1749 9.60801Z" fill="white"/>
</svg>
